<?xml version="1.0" encoding="UTF-8" standalone="no"?>
<!-- Created with Inkscape (http://www.inkscape.org/) -->

<svg
   width="512"
   height="512"
   viewBox="0 0 135.46666 135.46667"
   version="1.1"
   id="svg1"
   xml:space="preserve"
   inkscape:version="1.4 (e7c3feb100, 2024-10-09)"
   sodipodi:docname="spinner-third.svg"
   xmlns:inkscape="http://www.inkscape.org/namespaces/inkscape"
   xmlns:sodipodi="http://sodipodi.sourceforge.net/DTD/sodipodi-0.dtd"
   xmlns="http://www.w3.org/2000/svg"
   xmlns:svg="http://www.w3.org/2000/svg"><sodipodi:namedview
     id="namedview1"
     pagecolor="#505050"
     bordercolor="#eeeeee"
     borderopacity="1"
     inkscape:showpageshadow="0"
     inkscape:pageopacity="0"
     inkscape:pagecheckerboard="0"
     inkscape:deskcolor="#505050"
     inkscape:document-units="mm"
     inkscape:zoom="0.35355339"
     inkscape:cx="-60.811183"
     inkscape:cy="369.10974"
     inkscape:window-width="1920"
     inkscape:window-height="1014"
     inkscape:window-x="0"
     inkscape:window-y="35"
     inkscape:window-maximized="1"
     inkscape:current-layer="layer1" /><defs
     id="defs1" /><g
     inkscape:label="Layer 1"
     inkscape:groupmode="layer"
     id="layer1"><g
       id="g22"
       transform="matrix(0.66797101,0,0,0.66797101,-84.858074,-172.57329)"
       style="fill:#a5acb9;fill-opacity:1"><path
         style="fill:#a5acb9;fill-opacity:1"
         d="m 224.67781,452.30542 c 0.191,-0.0764 0.4192,-0.067 0.50712,0.0209 0.0879,0.0879 -0.0684,0.15045 -0.34727,0.13896 -0.30822,-0.0127 -0.37091,-0.0754 -0.15985,-0.15985 z m 6.35,0 c 0.191,-0.0764 0.4192,-0.067 0.50712,0.0209 0.0879,0.0879 -0.0684,0.15045 -0.34726,0.13896 -0.30823,-0.0127 -0.37092,-0.0754 -0.15986,-0.15985 z m -51.84249,-43.40931 c -0.3291,-0.41965 -0.31975,-0.429 0.0999,-0.0999 0.25466,0.19972 0.46302,0.40808 0.46302,0.46302 0,0.21776 -0.21727,0.0776 -0.56292,-0.36312 z m 0.0337,-98.35874 c 0.34178,-0.36381 0.68094,-0.66146 0.7537,-0.66146 0.0728,0 -0.14734,0.29765 -0.48911,0.66146 -0.34178,0.3638 -0.68094,0.66145 -0.7537,0.66145 -0.0728,0 0.14734,-0.29765 0.48911,-0.66145 z m -15.34584,-17.43009 c 0,-0.0549 0.20836,-0.2633 0.46302,-0.46302 0.41965,-0.3291 0.42901,-0.31975 0.0999,0.0999 -0.34565,0.44073 -0.56292,0.58088 -0.56292,0.36312 z"
         id="path27" /><path
         style="fill:#a5acb9;fill-opacity:1"
         d="m 225.59235,452.30281 c 0.25743,-0.0671 0.61462,-0.0627 0.79375,0.01 0.17914,0.0725 -0.0315,0.12736 -0.46805,0.12197 -0.43657,-0.005 -0.58313,-0.0647 -0.3257,-0.13177 z m 4.36059,0.008 c 0.18191,-0.0734 0.47956,-0.0734 0.66146,0 0.1819,0.0734 0.0331,0.13345 -0.33073,0.13345 -0.3638,0 -0.51263,-0.0601 -0.33073,-0.13345 z m -3.70416,-23.2833 c 0.1819,-0.0734 0.47955,-0.0734 0.66145,0 0.18191,0.0734 0.0331,0.13345 -0.33072,0.13345 -0.36381,0 -0.51263,-0.0601 -0.33073,-0.13345 z M 165.1624,427.4168 c -0.32911,-0.41964 -0.31975,-0.429 0.0999,-0.0999 0.25466,0.19972 0.46302,0.40808 0.46302,0.46302 0,0.21777 -0.21728,0.0776 -0.56292,-0.36312 z m 128.6213,-2.01812 c 0,-0.0549 0.20836,-0.2633 0.46302,-0.46302 0.41964,-0.32911 0.429,-0.31975 0.0999,0.0999 -0.34564,0.44073 -0.56291,0.58089 -0.56291,0.36313 z m -133.2429,-2.61208 -0.50403,-0.59532 0.59532,0.50403 c 0.55944,0.47366 0.71576,0.6866 0.50402,0.6866 -0.0502,0 -0.31809,-0.26789 -0.59531,-0.59531 z m 136.94706,-1.35667 c 0,-0.0549 0.20836,-0.2633 0.46303,-0.46302 0.41964,-0.32911 0.429,-0.31975 0.0999,0.0999 -0.34564,0.44073 -0.56292,0.58088 -0.56292,0.36312 z m -117.36789,-11.6079 -0.50402,-0.59531 0.59531,0.50402 c 0.32742,0.27722 0.59531,0.54511 0.59531,0.59532 0,0.21173 -0.21293,0.0554 -0.6866,-0.50403 z m -1.85208,-1.85208 -0.50403,-0.59532 0.59532,0.50403 c 0.55944,0.47366 0.71576,0.6866 0.50402,0.6866 -0.0502,0 -0.31809,-0.26789 -0.59531,-0.59531 z m -0.23944,-96.24208 c 0.26339,-0.29104 0.53842,-0.52917 0.61118,-0.52917 0.0728,0 -0.0832,0.23813 -0.3466,0.52917 -0.26339,0.29104 -0.53842,0.52917 -0.61118,0.52917 -0.0728,0 0.0832,-0.23813 0.3466,-0.52917 z m 1.98437,-1.95198 c 0,-0.0549 0.20836,-0.2633 0.46302,-0.46302 0.41965,-0.3291 0.42901,-0.31975 0.0999,0.0999 -0.34565,0.44073 -0.56292,0.58088 -0.56292,0.36312 z m -17.99167,-14.81665 c 0,-0.0549 0.20836,-0.2633 0.46302,-0.46302 0.41964,-0.3291 0.429,-0.31975 0.0999,0.0999 -0.34564,0.44073 -0.56291,0.58088 -0.56291,0.36312 z m 131.7288,-0.89229 c -0.32911,-0.41964 -0.31975,-0.429 0.0999,-0.0999 0.44073,0.34564 0.58089,0.56291 0.36313,0.56291 -0.0549,0 -0.2633,-0.20836 -0.46302,-0.46302 z m -130.67047,-0.16604 c 0,-0.0549 0.20836,-0.2633 0.46302,-0.46302 0.41965,-0.32911 0.42901,-0.31975 0.0999,0.0999 -0.34565,0.44072 -0.56292,0.58088 -0.56292,0.36312 z m 63.1693,-3.51491 c 0.1819,-0.0734 0.47955,-0.0734 0.66145,0 0.18191,0.0734 0.0331,0.13345 -0.33072,0.13345 -0.36381,0 -0.51263,-0.06 -0.33073,-0.13345 z m 0.0165,-23.28882 c 0.191,-0.0764 0.4192,-0.067 0.50712,0.0209 0.0879,0.0879 -0.0684,0.15045 -0.34726,0.13896 -0.30823,-0.0127 -0.37092,-0.0754 -0.15986,-0.15985 z"
         id="path26" /><path
         style="fill:#a5acb9;fill-opacity:1"
         d="m 226.77794,452.31093 c 0.1819,-0.0734 0.47956,-0.0734 0.66146,0 0.1819,0.0734 0.0331,0.13345 -0.33073,0.13345 -0.3638,0 -0.51263,-0.0601 -0.33073,-0.13345 z"
         id="path25" /><path
         style="fill:#a5acb9;fill-opacity:1"
         d="m 227.96857,452.30378 c 0.25466,-0.0666 0.67138,-0.0666 0.92604,0 0.25466,0.0666 0.0463,0.121 -0.46302,0.121 -0.50932,0 -0.71768,-0.0544 -0.46302,-0.121 z m -3.02617,-23.28167 c 0.19099,-0.0764 0.41919,-0.067 0.50711,0.0209 0.0879,0.0879 -0.0684,0.15045 -0.34726,0.13897 -0.30823,-0.0127 -0.37092,-0.0754 -0.15985,-0.15986 z m 5.55625,0 c 0.19099,-0.0764 0.4192,-0.067 0.50712,0.0209 0.0879,0.0879 -0.0684,0.15045 -0.34727,0.13897 -0.30822,-0.0127 -0.37092,-0.0754 -0.15985,-0.15986 z M 159.15251,364.6446 c 0,-0.36381 0.06,-0.51263 0.13345,-0.33073 0.0734,0.1819 0.0734,0.47955 0,0.66145 -0.0734,0.18191 -0.13345,0.0331 -0.13345,-0.33072 z m -23.27354,-1.19063 c 0.005,-0.43656 0.0647,-0.58312 0.13177,-0.32569 0.0671,0.25743 0.0627,0.61462 -0.01,0.79375 -0.0725,0.17913 -0.12736,-0.0315 -0.12197,-0.46806 z m 23.00895,-3.83645 c 0,-0.3638 0.0601,-0.51263 0.13346,-0.33073 0.0734,0.1819 0.0734,0.47956 0,0.66146 -0.0734,0.1819 -0.13346,0.0331 -0.13346,-0.33073 z m -23.03964,-3.8585 c 0.0127,-0.30823 0.0754,-0.37092 0.15985,-0.15986 0.0764,0.191 0.067,0.4192 -0.0209,0.50712 -0.0879,0.0879 -0.15045,-0.0684 -0.13896,-0.34726 z m 89.09412,-65.37841 c 0.19099,-0.0764 0.41919,-0.067 0.50711,0.0209 0.0879,0.0879 -0.0684,0.15046 -0.34726,0.13897 -0.30823,-0.0127 -0.37092,-0.0754 -0.15985,-0.15985 z"
         id="path24" /><path
         style="fill:#a5acb9;fill-opacity:1"
         d="m 290.6087,428.30921 c 0,-0.0549 0.20835,-0.2633 0.46302,-0.46302 0.41964,-0.32911 0.429,-0.31975 0.0999,0.0999 -0.34564,0.44072 -0.56291,0.58088 -0.56291,0.36312 z m -127.0338,-2.47979 c -0.32911,-0.41964 -0.31975,-0.429 0.0999,-0.0999 0.25466,0.19972 0.46302,0.40807 0.46302,0.46302 0,0.21776 -0.21728,0.0776 -0.56292,-0.36313 z m -27.72662,-63.45583 c 0.0127,-0.30822 0.0754,-0.37092 0.15985,-0.15985 0.0764,0.19099 0.067,0.4192 -0.0209,0.50712 -0.0879,0.0879 -0.15045,-0.0684 -0.13896,-0.34727 z m 0,-5.82083 c 0.0127,-0.30822 0.0754,-0.37091 0.15985,-0.15985 0.0764,0.191 0.067,0.4192 -0.0209,0.50712 -0.0879,0.0879 -0.15045,-0.0684 -0.13896,-0.34727 z m 86.44828,-89.19088 c 0.191,-0.0764 0.4192,-0.067 0.50712,0.0209 0.0879,0.0879 -0.0684,0.15045 -0.34727,0.13897 -0.30822,-0.0127 -0.37092,-0.0754 -0.15985,-0.15986 z"
         id="path23" /><path
         style="fill:#a5acb9;fill-opacity:1"
         d="m 218.37742,451.68126 c -12.06165,-1.41984 -21.31194,-4.14518 -31.35314,-9.23733 -15.10342,-7.65934 -27.85096,-19.17475 -36.59803,-33.0606 -7.6105,-12.08157 -11.6881,-23.23329 -13.64977,-37.33041 -2.50089,-17.97209 0.68892,-37.15968 8.90699,-53.57806 12.28323,-24.53991 33.65028,-41.78615 59.99394,-48.42361 8.30451,-2.09238 19.25063,-3.20389 27.0914,-2.75098 19.23381,1.11103 35.0201,6.67492 50.29926,17.72803 11.86788,8.58536 21.57351,20.12898 28.42753,33.81095 4.14551,8.27528 6.89715,16.95382 8.31534,26.2262 1.74593,11.41527 1.62972,20.67643 -0.40008,31.88226 -3.29289,18.17888 -11.93172,34.53847 -25.36258,48.02977 -10.4305,10.47744 -21.51809,17.47401 -35.0573,22.12212 -12.70767,4.36264 -27.90751,6.07735 -40.61356,4.58166 z m 16.1454,-22.8621 c 8.5522,-0.82987 15.30923,-2.51816 22.35149,-5.58468 7.98008,-3.47488 14.01743,-7.63138 20.52136,-14.12825 6.07724,-6.07064 8.50913,-9.45188 12.28245,-17.07729 3.9933,-8.06995 5.69283,-13.0551 6.9906,-20.50519 0.87148,-5.00286 1.16997,-9.05247 1.00433,-13.62579 -0.67616,-18.66929 -7.61457,-34.96569 -20.15383,-47.33578 -11.34043,-11.18743 -24.13494,-17.32388 -40.88554,-19.60935 -4.64271,-0.63346 -13.1301,-0.65147 -17.33022,-0.0368 -16.40644,2.4011 -29.0879,8.66117 -40.22713,19.8577 -12.22013,12.283 -18.66749,26.92606 -19.94331,45.29465 -0.82201,11.83505 2.5379,26.88283 8.31499,37.2396 8.80271,15.78093 22.95501,27.42451 39.55232,32.54107 9.29943,2.86679 18.43133,3.85226 27.52249,2.97009 z"
         id="path22" /></g><path
       style="fill:#000000;stroke-width:0.667971;stroke-dasharray:none"
       d="m 111.91567,101.93612 c -2.11631,-0.73952 -3.51191,-1.992561 -4.44859,-3.994202 -0.44561,-0.952239 -0.55998,-1.45283 -0.62033,-2.714867 -0.0417,-0.871589 0.0173,-1.914906 0.1354,-2.388965 0.11515,-0.462891 0.91763,-2.273158 1.78328,-4.022829 2.28076,-4.609901 3.33064,-7.617207 4.21595,-12.07625 0.84383,-4.250058 1.12315,-7.877215 0.88695,-11.517738 -0.65634,-10.115652 -3.6884,-18.429326 -9.50687,-26.067027 -1.60152,-2.102246 -5.519526,-6.090286 -7.619506,-7.755691 -8.062922,-6.394392 -16.524468,-9.45511 -28.143541,-10.180112 -3.324198,-0.207419 -4.349994,-0.484085 -5.746126,-1.54978 -1.376917,-1.051025 -2.19623,-2.234584 -2.629061,-3.797883 -0.338868,-1.223943 -0.341086,-3.735408 -0.004,-4.869523 0.641679,-2.1607777 2.58782,-4.1599083 4.685342,-4.8129239 1.836487,-0.57175 6.035927,-0.4385499 11.955103,0.3791874 12.676102,1.7512193 25.030179,7.9734165 34.364759,17.3079965 6.863,6.863009 12.32322,15.758866 15.18077,24.732756 4.4304,13.913275 3.83045,29.127333 -1.68308,42.681267 -1.00375,2.467511 -3.25104,6.872827 -4.13767,8.110993 -1.28135,1.789361 -3.28577,2.766541 -5.9037,2.878101 -1.3255,0.0565 -1.78631,-6.1e-4 -2.76479,-0.34251 z"
       id="path2" /></g></svg>
